<svg width="332" height="28" viewBox="0 0 332 28" fill="none" xmlns="http://www.w3.org/2000/svg">
<path d="M7.00284 14.7429L8.69318 13.0312L12.1378 16.419L19.5881 8.99716L21.2926 10.7088L12.1378 19.8281L7.00284 14.7429Z" fill="#318000"/>
<rect x="1" y="1" width="26" height="26" rx="13" stroke="#318000" stroke-width="2"/>
<path d="M48.04 17.18C48.04 18.0333 47.8333 18.76 47.42 19.36C47.0067 19.9467 46.4133 20.4 45.64 20.72C44.88 21.04 43.98 21.2 42.94 21.2C42.4067 21.2 41.8933 21.1733 41.4 21.12C40.92 21.0667 40.48 20.9933 40.08 20.9C39.68 20.7933 39.3267 20.6667 39.02 20.52V18.8C39.5 19.0133 40.0933 19.2067 40.8 19.38C41.52 19.5533 42.26 19.64 43.02 19.64C43.7267 19.64 44.32 19.5467 44.8 19.36C45.28 19.1733 45.64 18.9067 45.88 18.56C46.12 18.2133 46.24 17.8067 46.24 17.34C46.24 16.8733 46.14 16.48 45.94 16.16C45.74 15.84 45.3933 15.5467 44.9 15.28C44.42 15 43.7467 14.7067 42.88 14.4C42.2667 14.1733 41.7267 13.9333 41.26 13.68C40.8067 13.4133 40.4267 13.1133 40.12 12.78C39.8133 12.4467 39.58 12.0667 39.42 11.64C39.2733 11.2133 39.2 10.72 39.2 10.16C39.2 9.4 39.3933 8.75333 39.78 8.22C40.1667 7.67333 40.7 7.25333 41.38 6.96C42.0733 6.66667 42.8667 6.52 43.76 6.52C44.5467 6.52 45.2667 6.59333 45.92 6.74C46.5733 6.88667 47.1667 7.08 47.7 7.32L47.14 8.86C46.6467 8.64667 46.1067 8.46667 45.52 8.32C44.9467 8.17333 44.3467 8.1 43.72 8.1C43.12 8.1 42.62 8.18667 42.22 8.36C41.82 8.53333 41.52 8.78 41.32 9.1C41.12 9.40667 41.02 9.76667 41.02 10.18C41.02 10.66 41.12 11.06 41.32 11.38C41.52 11.7 41.8467 11.9867 42.3 12.24C42.7533 12.4933 43.3667 12.7667 44.14 13.06C44.98 13.3667 45.6867 13.7 46.26 14.06C46.8467 14.4067 47.2867 14.8267 47.58 15.32C47.8867 15.8133 48.04 16.4333 48.04 17.18ZM59.6366 10.28V21H58.1966L57.9366 19.58H57.8566C57.6299 19.9533 57.3366 20.26 56.9766 20.5C56.6166 20.74 56.2232 20.9133 55.7966 21.02C55.3699 21.14 54.9232 21.2 54.4566 21.2C53.6032 21.2 52.8832 21.0667 52.2966 20.8C51.7232 20.52 51.2899 20.0933 50.9966 19.52C50.7032 18.9467 50.5566 18.2067 50.5566 17.3V10.28H52.3366V17.18C52.3366 18.0333 52.5299 18.6733 52.9166 19.1C53.3032 19.5267 53.9032 19.74 54.7166 19.74C55.5166 19.74 56.1432 19.5933 56.5966 19.3C57.0632 18.9933 57.3899 18.5533 57.5766 17.98C57.7766 17.3933 57.8766 16.6867 57.8766 15.86V10.28H59.6366ZM67.3398 21.2C66.3932 21.2 65.5465 21.0067 64.7998 20.62C64.0665 20.2333 63.4865 19.6333 63.0598 18.82C62.6465 18.0067 62.4398 16.9667 62.4398 15.7C62.4398 14.38 62.6598 13.3067 63.0998 12.48C63.5398 11.6533 64.1332 11.0467 64.8798 10.66C65.6398 10.2733 66.4998 10.08 67.4598 10.08C68.0065 10.08 68.5332 10.14 69.0398 10.26C69.5465 10.3667 69.9598 10.5 70.2798 10.66L69.7398 12.12C69.4198 12 69.0465 11.8867 68.6198 11.78C68.1932 11.6733 67.7932 11.62 67.4198 11.62C66.6998 11.62 66.1065 11.7733 65.6398 12.08C65.1732 12.3867 64.8265 12.84 64.5998 13.44C64.3732 14.04 64.2598 14.7867 64.2598 15.68C64.2598 16.5333 64.3732 17.26 64.5998 17.86C64.8265 18.46 65.1665 18.9133 65.6198 19.22C66.0732 19.5267 66.6398 19.68 67.3198 19.68C67.9065 19.68 68.4198 19.62 68.8598 19.5C69.3132 19.38 69.7265 19.2333 70.0998 19.06V20.62C69.7398 20.8067 69.3398 20.9467 68.8998 21.04C68.4732 21.1467 67.9532 21.2 67.3398 21.2ZM76.9492 21.2C76.0026 21.2 75.1559 21.0067 74.4092 20.62C73.6759 20.2333 73.0959 19.6333 72.6692 18.82C72.2559 18.0067 72.0492 16.9667 72.0492 15.7C72.0492 14.38 72.2692 13.3067 72.7092 12.48C73.1492 11.6533 73.7426 11.0467 74.4892 10.66C75.2492 10.2733 76.1092 10.08 77.0692 10.08C77.6159 10.08 78.1426 10.14 78.6492 10.26C79.1559 10.3667 79.5692 10.5 79.8892 10.66L79.3492 12.12C79.0292 12 78.6559 11.8867 78.2292 11.78C77.8026 11.6733 77.4026 11.62 77.0292 11.62C76.3092 11.62 75.7159 11.7733 75.2492 12.08C74.7826 12.3867 74.4359 12.84 74.2092 13.44C73.9826 14.04 73.8692 14.7867 73.8692 15.68C73.8692 16.5333 73.9826 17.26 74.2092 17.86C74.4359 18.46 74.7759 18.9133 75.2292 19.22C75.6826 19.5267 76.2492 19.68 76.9292 19.68C77.5159 19.68 78.0292 19.62 78.4692 19.5C78.9226 19.38 79.3359 19.2333 79.7092 19.06V20.62C79.3492 20.8067 78.9492 20.9467 78.5092 21.04C78.0826 21.1467 77.5626 21.2 76.9492 21.2ZM86.3986 10.08C87.3186 10.08 88.1053 10.28 88.7586 10.68C89.4253 11.08 89.9319 11.6467 90.2786 12.38C90.6386 13.1 90.8186 13.9467 90.8186 14.92V15.98H83.4786C83.5053 17.1933 83.8119 18.12 84.3986 18.76C84.9986 19.3867 85.8319 19.7 86.8986 19.7C87.5786 19.7 88.1786 19.64 88.6986 19.52C89.2319 19.3867 89.7786 19.2 90.3386 18.96V20.5C89.7919 20.74 89.2519 20.9133 88.7186 21.02C88.1853 21.14 87.5519 21.2 86.8186 21.2C85.8053 21.2 84.9053 20.9933 84.1186 20.58C83.3453 20.1667 82.7386 19.5533 82.2986 18.74C81.8719 17.9133 81.6586 16.9067 81.6586 15.72C81.6586 14.5467 81.8519 13.54 82.2386 12.7C82.6386 11.86 83.1919 11.2133 83.8986 10.76C84.6186 10.3067 85.4519 10.08 86.3986 10.08ZM86.3786 11.52C85.5386 11.52 84.8719 11.7933 84.3786 12.34C83.8986 12.8733 83.6119 13.62 83.5186 14.58H88.9786C88.9786 13.9667 88.8853 13.4333 88.6986 12.98C88.5119 12.5267 88.2253 12.1733 87.8386 11.92C87.4653 11.6533 86.9786 11.52 86.3786 11.52ZM100.528 18.04C100.528 18.7333 100.354 19.3133 100.008 19.78C99.661 20.2467 99.1677 20.6 98.5277 20.84C97.8877 21.08 97.1277 21.2 96.2477 21.2C95.501 21.2 94.8543 21.14 94.3077 21.02C93.7743 20.9 93.301 20.7333 92.8877 20.52V18.92C93.3143 19.1333 93.8277 19.3333 94.4277 19.52C95.041 19.6933 95.661 19.78 96.2877 19.78C97.181 19.78 97.8277 19.64 98.2277 19.36C98.6277 19.0667 98.8277 18.68 98.8277 18.2C98.8277 17.9333 98.7543 17.6933 98.6077 17.48C98.461 17.2667 98.1943 17.0533 97.8077 16.84C97.4343 16.6267 96.8943 16.3867 96.1877 16.12C95.4943 15.8533 94.901 15.5867 94.4077 15.32C93.9143 15.0533 93.5343 14.7333 93.2677 14.36C93.001 13.9867 92.8677 13.5067 92.8677 12.92C92.8677 12.0133 93.2343 11.3133 93.9677 10.82C94.7143 10.3267 95.6877 10.08 96.8877 10.08C97.541 10.08 98.1477 10.1467 98.7077 10.28C99.281 10.4 99.8143 10.5733 100.308 10.8L99.7077 12.2C99.4143 12.0667 99.101 11.9533 98.7677 11.86C98.4477 11.7533 98.121 11.6733 97.7877 11.62C97.4543 11.5533 97.1143 11.52 96.7677 11.52C96.0477 11.52 95.4943 11.64 95.1077 11.88C94.7343 12.1067 94.5477 12.42 94.5477 12.82C94.5477 13.1133 94.6343 13.3667 94.8077 13.58C94.981 13.78 95.2677 13.98 95.6677 14.18C96.081 14.3667 96.6277 14.5933 97.3077 14.86C97.9877 15.1133 98.5677 15.3733 99.0477 15.64C99.5277 15.9067 99.8943 16.2333 100.148 16.62C100.401 16.9933 100.528 17.4667 100.528 18.04ZM110.098 18.04C110.098 18.7333 109.925 19.3133 109.578 19.78C109.231 20.2467 108.738 20.6 108.098 20.84C107.458 21.08 106.698 21.2 105.818 21.2C105.071 21.2 104.425 21.14 103.878 21.02C103.345 20.9 102.871 20.7333 102.458 20.52V18.92C102.885 19.1333 103.398 19.3333 103.998 19.52C104.611 19.6933 105.231 19.78 105.858 19.78C106.751 19.78 107.398 19.64 107.798 19.36C108.198 19.0667 108.398 18.68 108.398 18.2C108.398 17.9333 108.325 17.6933 108.178 17.48C108.031 17.2667 107.765 17.0533 107.378 16.84C107.005 16.6267 106.465 16.3867 105.758 16.12C105.065 15.8533 104.471 15.5867 103.978 15.32C103.485 15.0533 103.105 14.7333 102.838 14.36C102.571 13.9867 102.438 13.5067 102.438 12.92C102.438 12.0133 102.805 11.3133 103.538 10.82C104.285 10.3267 105.258 10.08 106.458 10.08C107.111 10.08 107.718 10.1467 108.278 10.28C108.851 10.4 109.385 10.5733 109.878 10.8L109.278 12.2C108.985 12.0667 108.671 11.9533 108.338 11.86C108.018 11.7533 107.691 11.6733 107.358 11.62C107.025 11.5533 106.685 11.52 106.338 11.52C105.618 11.52 105.065 11.64 104.678 11.88C104.305 12.1067 104.118 12.42 104.118 12.82C104.118 13.1133 104.205 13.3667 104.378 13.58C104.551 13.78 104.838 13.98 105.238 14.18C105.651 14.3667 106.198 14.5933 106.878 14.86C107.558 15.1133 108.138 15.3733 108.618 15.64C109.098 15.9067 109.465 16.2333 109.718 16.62C109.971 16.9933 110.098 17.4667 110.098 18.04ZM116.984 16.42V14.86H121.824V16.42H116.984ZM127.844 10.28H129.724L132.044 16.38C132.178 16.74 132.298 17.0867 132.404 17.42C132.524 17.7533 132.631 18.08 132.724 18.4C132.818 18.7067 132.891 19.0067 132.944 19.3H133.024C133.104 18.9667 133.231 18.5333 133.404 18C133.578 17.4533 133.758 16.9067 133.944 16.36L136.124 10.28H138.024L133.404 22.48C133.151 23.1467 132.851 23.7267 132.504 24.22C132.171 24.7267 131.758 25.1133 131.264 25.38C130.784 25.66 130.198 25.8 129.504 25.8C129.184 25.8 128.904 25.78 128.664 25.74C128.424 25.7133 128.218 25.68 128.044 25.64V24.24C128.191 24.2667 128.364 24.2933 128.564 24.32C128.778 24.3467 128.998 24.36 129.224 24.36C129.638 24.36 129.991 24.28 130.284 24.12C130.591 23.9733 130.851 23.7533 131.064 23.46C131.278 23.18 131.458 22.8467 131.604 22.46L132.164 21.04L127.844 10.28ZM149.04 15.62C149.04 16.5133 148.92 17.3067 148.68 18C148.453 18.68 148.12 19.26 147.68 19.74C147.253 20.22 146.726 20.5867 146.1 20.84C145.486 21.08 144.8 21.2 144.04 21.2C143.333 21.2 142.68 21.08 142.08 20.84C141.48 20.5867 140.96 20.22 140.52 19.74C140.08 19.26 139.733 18.68 139.48 18C139.24 17.3067 139.12 16.5133 139.12 15.62C139.12 14.4333 139.32 13.4333 139.72 12.62C140.12 11.7933 140.693 11.1667 141.44 10.74C142.186 10.3 143.073 10.08 144.1 10.08C145.073 10.08 145.926 10.3 146.66 10.74C147.406 11.1667 147.986 11.7933 148.4 12.62C148.826 13.4333 149.04 14.4333 149.04 15.62ZM140.94 15.62C140.94 16.46 141.046 17.1933 141.26 17.82C141.486 18.4333 141.833 18.9067 142.3 19.24C142.766 19.5733 143.36 19.74 144.08 19.74C144.8 19.74 145.393 19.5733 145.86 19.24C146.326 18.9067 146.666 18.4333 146.88 17.82C147.106 17.1933 147.22 16.46 147.22 15.62C147.22 14.7667 147.106 14.04 146.88 13.44C146.653 12.84 146.306 12.38 145.84 12.06C145.386 11.7267 144.793 11.56 144.06 11.56C142.966 11.56 142.173 11.92 141.68 12.64C141.186 13.36 140.94 14.3533 140.94 15.62ZM160.789 10.28V21H159.349L159.089 19.58H159.009C158.782 19.9533 158.489 20.26 158.129 20.5C157.769 20.74 157.376 20.9133 156.949 21.02C156.522 21.14 156.076 21.2 155.609 21.2C154.756 21.2 154.036 21.0667 153.449 20.8C152.876 20.52 152.442 20.0933 152.149 19.52C151.856 18.9467 151.709 18.2067 151.709 17.3V10.28H153.489V17.18C153.489 18.0333 153.682 18.6733 154.069 19.1C154.456 19.5267 155.056 19.74 155.869 19.74C156.669 19.74 157.296 19.5933 157.749 19.3C158.216 18.9933 158.542 18.5533 158.729 17.98C158.929 17.3933 159.029 16.6867 159.029 15.86V10.28H160.789ZM169.192 10.08C169.392 10.08 169.606 10.0933 169.832 10.12C170.072 10.1333 170.279 10.16 170.452 10.2L170.232 11.82C170.059 11.78 169.866 11.7467 169.652 11.72C169.452 11.6933 169.259 11.68 169.072 11.68C168.659 11.68 168.266 11.7667 167.892 11.94C167.519 12.1133 167.186 12.36 166.892 12.68C166.599 12.9867 166.366 13.36 166.192 13.8C166.032 14.24 165.952 14.7333 165.952 15.28V21H164.192V10.28H165.632L165.832 12.24H165.912C166.139 11.84 166.412 11.48 166.732 11.16C167.052 10.8267 167.419 10.5667 167.832 10.38C168.246 10.18 168.699 10.08 169.192 10.08ZM179.409 21H177.649V5.8H179.409V21ZM184.565 10.28V21H182.805V10.28H184.565ZM183.705 6.26C183.972 6.26 184.205 6.35333 184.405 6.54C184.619 6.71333 184.725 6.99333 184.725 7.38C184.725 7.75333 184.619 8.03333 184.405 8.22C184.205 8.40667 183.972 8.5 183.705 8.5C183.412 8.5 183.165 8.40667 182.965 8.22C182.765 8.03333 182.665 7.75333 182.665 7.38C182.665 6.99333 182.765 6.71333 182.965 6.54C183.165 6.35333 183.412 6.26 183.705 6.26ZM193.122 10.08C194.402 10.08 195.368 10.3933 196.022 11.02C196.675 11.6333 197.002 12.6333 197.002 14.02V21H195.262V14.14C195.262 13.2733 195.068 12.6267 194.682 12.2C194.295 11.7733 193.688 11.56 192.862 11.56C191.675 11.56 190.855 11.8933 190.402 12.56C189.948 13.2267 189.722 14.1867 189.722 15.44V21H187.962V10.28H189.382L189.642 11.74H189.742C189.982 11.3667 190.275 11.06 190.622 10.82C190.982 10.5667 191.375 10.38 191.802 10.26C192.228 10.14 192.668 10.08 193.122 10.08ZM202.065 13.74C202.065 13.9533 202.052 14.2333 202.025 14.58C202.012 14.9267 201.998 15.2267 201.985 15.48H202.065C202.145 15.3733 202.265 15.22 202.425 15.02C202.585 14.82 202.745 14.62 202.905 14.42C203.078 14.2067 203.225 14.0333 203.345 13.9L206.765 10.28H208.825L204.485 14.86L209.125 21H207.005L203.285 16L202.065 17.06V21H200.325V5.8H202.065V13.74ZM217.964 10.28V21H216.204V10.28H217.964ZM217.104 6.26C217.371 6.26 217.604 6.35333 217.804 6.54C218.017 6.71333 218.124 6.99333 218.124 7.38C218.124 7.75333 218.017 8.03333 217.804 8.22C217.604 8.40667 217.371 8.5 217.104 8.5C216.811 8.5 216.564 8.40667 216.364 8.22C216.164 8.03333 216.064 7.75333 216.064 7.38C216.064 6.99333 216.164 6.71333 216.364 6.54C216.564 6.35333 216.811 6.26 217.104 6.26ZM228.34 18.04C228.34 18.7333 228.167 19.3133 227.82 19.78C227.473 20.2467 226.98 20.6 226.34 20.84C225.7 21.08 224.94 21.2 224.06 21.2C223.313 21.2 222.667 21.14 222.12 21.02C221.587 20.9 221.113 20.7333 220.7 20.52V18.92C221.127 19.1333 221.64 19.3333 222.24 19.52C222.853 19.6933 223.473 19.78 224.1 19.78C224.993 19.78 225.64 19.64 226.04 19.36C226.44 19.0667 226.64 18.68 226.64 18.2C226.64 17.9333 226.567 17.6933 226.42 17.48C226.273 17.2667 226.007 17.0533 225.62 16.84C225.247 16.6267 224.707 16.3867 224 16.12C223.307 15.8533 222.713 15.5867 222.22 15.32C221.727 15.0533 221.347 14.7333 221.08 14.36C220.813 13.9867 220.68 13.5067 220.68 12.92C220.68 12.0133 221.047 11.3133 221.78 10.82C222.527 10.3267 223.5 10.08 224.7 10.08C225.353 10.08 225.96 10.1467 226.52 10.28C227.093 10.4 227.627 10.5733 228.12 10.8L227.52 12.2C227.227 12.0667 226.913 11.9533 226.58 11.86C226.26 11.7533 225.933 11.6733 225.6 11.62C225.267 11.5533 224.927 11.52 224.58 11.52C223.86 11.52 223.307 11.64 222.92 11.88C222.547 12.1067 222.36 12.42 222.36 12.82C222.36 13.1133 222.447 13.3667 222.62 13.58C222.793 13.78 223.08 13.98 223.48 14.18C223.893 14.3667 224.44 14.5933 225.12 14.86C225.8 15.1133 226.38 15.3733 226.86 15.64C227.34 15.9067 227.707 16.2333 227.96 16.62C228.213 16.9933 228.34 17.4667 228.34 18.04ZM243.106 18.04C243.106 18.7333 242.932 19.3133 242.586 19.78C242.239 20.2467 241.746 20.6 241.106 20.84C240.466 21.08 239.706 21.2 238.826 21.2C238.079 21.2 237.432 21.14 236.886 21.02C236.352 20.9 235.879 20.7333 235.466 20.52V18.92C235.892 19.1333 236.406 19.3333 237.006 19.52C237.619 19.6933 238.239 19.78 238.866 19.78C239.759 19.78 240.406 19.64 240.806 19.36C241.206 19.0667 241.406 18.68 241.406 18.2C241.406 17.9333 241.332 17.6933 241.186 17.48C241.039 17.2667 240.772 17.0533 240.386 16.84C240.012 16.6267 239.472 16.3867 238.766 16.12C238.072 15.8533 237.479 15.5867 236.986 15.32C236.492 15.0533 236.112 14.7333 235.846 14.36C235.579 13.9867 235.446 13.5067 235.446 12.92C235.446 12.0133 235.812 11.3133 236.546 10.82C237.292 10.3267 238.266 10.08 239.466 10.08C240.119 10.08 240.726 10.1467 241.286 10.28C241.859 10.4 242.392 10.5733 242.886 10.8L242.286 12.2C241.992 12.0667 241.679 11.9533 241.346 11.86C241.026 11.7533 240.699 11.6733 240.366 11.62C240.032 11.5533 239.692 11.52 239.346 11.52C238.626 11.52 238.072 11.64 237.686 11.88C237.312 12.1067 237.126 12.42 237.126 12.82C237.126 13.1133 237.212 13.3667 237.386 13.58C237.559 13.78 237.846 13.98 238.246 14.18C238.659 14.3667 239.206 14.5933 239.886 14.86C240.566 15.1133 241.146 15.3733 241.626 15.64C242.106 15.9067 242.472 16.2333 242.726 16.62C242.979 16.9933 243.106 17.4667 243.106 18.04ZM247.456 10.26C247.456 10.5133 247.443 10.7733 247.416 11.04C247.403 11.3067 247.383 11.5467 247.356 11.76H247.476C247.703 11.3867 247.989 11.08 248.336 10.84C248.683 10.6 249.069 10.42 249.496 10.3C249.923 10.1667 250.363 10.1 250.816 10.1C251.683 10.1 252.403 10.24 252.976 10.52C253.563 10.7867 254.003 11.2067 254.296 11.78C254.589 12.3533 254.736 13.1 254.736 14.02V21H252.996V14.14C252.996 13.2733 252.803 12.6267 252.416 12.2C252.029 11.7733 251.423 11.56 250.596 11.56C249.796 11.56 249.169 11.7133 248.716 12.02C248.263 12.3133 247.936 12.7533 247.736 13.34C247.549 13.9133 247.456 14.62 247.456 15.46V21H245.696V5.8H247.456V10.26ZM267.379 15.62C267.379 16.5133 267.259 17.3067 267.019 18C266.793 18.68 266.459 19.26 266.019 19.74C265.593 20.22 265.066 20.5867 264.439 20.84C263.826 21.08 263.139 21.2 262.379 21.2C261.673 21.2 261.019 21.08 260.419 20.84C259.819 20.5867 259.299 20.22 258.859 19.74C258.419 19.26 258.073 18.68 257.819 18C257.579 17.3067 257.459 16.5133 257.459 15.62C257.459 14.4333 257.659 13.4333 258.059 12.62C258.459 11.7933 259.033 11.1667 259.779 10.74C260.526 10.3 261.413 10.08 262.439 10.08C263.413 10.08 264.266 10.3 264.999 10.74C265.746 11.1667 266.326 11.7933 266.739 12.62C267.166 13.4333 267.379 14.4333 267.379 15.62ZM259.279 15.62C259.279 16.46 259.386 17.1933 259.599 17.82C259.826 18.4333 260.173 18.9067 260.639 19.24C261.106 19.5733 261.699 19.74 262.419 19.74C263.139 19.74 263.733 19.5733 264.199 19.24C264.666 18.9067 265.006 18.4333 265.219 17.82C265.446 17.1933 265.559 16.46 265.559 15.62C265.559 14.7667 265.446 14.04 265.219 13.44C264.993 12.84 264.646 12.38 264.179 12.06C263.726 11.7267 263.133 11.56 262.399 11.56C261.306 11.56 260.513 11.92 260.019 12.64C259.526 13.36 259.279 14.3533 259.279 15.62ZM275.169 10.08C275.369 10.08 275.582 10.0933 275.809 10.12C276.049 10.1333 276.255 10.16 276.429 10.2L276.209 11.82C276.035 11.78 275.842 11.7467 275.629 11.72C275.429 11.6933 275.235 11.68 275.049 11.68C274.635 11.68 274.242 11.7667 273.869 11.94C273.495 12.1133 273.162 12.36 272.869 12.68C272.575 12.9867 272.342 13.36 272.169 13.8C272.009 14.24 271.929 14.7333 271.929 15.28V21H270.169V10.28H271.609L271.809 12.24H271.889C272.115 11.84 272.389 11.48 272.709 11.16C273.029 10.8267 273.395 10.5667 273.809 10.38C274.222 10.18 274.675 10.08 275.169 10.08ZM282.01 19.76C282.277 19.76 282.55 19.74 282.83 19.7C283.11 19.6467 283.337 19.5933 283.51 19.54V20.88C283.324 20.9733 283.057 21.0467 282.71 21.1C282.364 21.1667 282.03 21.2 281.71 21.2C281.15 21.2 280.63 21.1067 280.15 20.92C279.684 20.72 279.304 20.38 279.01 19.9C278.717 19.42 278.57 18.7467 278.57 17.88V11.64H277.05V10.8L278.59 10.1L279.29 7.82H280.33V10.28H283.43V11.64H280.33V17.84C280.33 18.4933 280.484 18.98 280.79 19.3C281.11 19.6067 281.517 19.76 282.01 19.76ZM289.797 10.08C290.717 10.08 291.504 10.28 292.157 10.68C292.824 11.08 293.33 11.6467 293.677 12.38C294.037 13.1 294.217 13.9467 294.217 14.92V15.98H286.877C286.904 17.1933 287.21 18.12 287.797 18.76C288.397 19.3867 289.23 19.7 290.297 19.7C290.977 19.7 291.577 19.64 292.097 19.52C292.63 19.3867 293.177 19.2 293.737 18.96V20.5C293.19 20.74 292.65 20.9133 292.117 21.02C291.584 21.14 290.95 21.2 290.217 21.2C289.204 21.2 288.304 20.9933 287.517 20.58C286.744 20.1667 286.137 19.5533 285.697 18.74C285.27 17.9133 285.057 16.9067 285.057 15.72C285.057 14.5467 285.25 13.54 285.637 12.7C286.037 11.86 286.59 11.2133 287.297 10.76C288.017 10.3067 288.85 10.08 289.797 10.08ZM289.777 11.52C288.937 11.52 288.27 11.7933 287.777 12.34C287.297 12.8733 287.01 13.62 286.917 14.58H292.377C292.377 13.9667 292.284 13.4333 292.097 12.98C291.91 12.5267 291.624 12.1733 291.237 11.92C290.864 11.6533 290.377 11.52 289.777 11.52ZM302.106 10.08C303.386 10.08 304.353 10.3933 305.006 11.02C305.659 11.6333 305.986 12.6333 305.986 14.02V21H304.246V14.14C304.246 13.2733 304.053 12.6267 303.666 12.2C303.279 11.7733 302.673 11.56 301.846 11.56C300.659 11.56 299.839 11.8933 299.386 12.56C298.933 13.2267 298.706 14.1867 298.706 15.44V21H296.946V10.28H298.366L298.626 11.74H298.726C298.966 11.3667 299.259 11.06 299.606 10.82C299.966 10.5667 300.359 10.38 300.786 10.26C301.213 10.14 301.653 10.08 302.106 10.08ZM313.449 10.08C314.369 10.08 315.156 10.28 315.809 10.68C316.476 11.08 316.983 11.6467 317.329 12.38C317.689 13.1 317.869 13.9467 317.869 14.92V15.98H310.529C310.556 17.1933 310.863 18.12 311.449 18.76C312.049 19.3867 312.883 19.7 313.949 19.7C314.629 19.7 315.229 19.64 315.749 19.52C316.283 19.3867 316.829 19.2 317.389 18.96V20.5C316.843 20.74 316.303 20.9133 315.769 21.02C315.236 21.14 314.603 21.2 313.869 21.2C312.856 21.2 311.956 20.9933 311.169 20.58C310.396 20.1667 309.789 19.5533 309.349 18.74C308.923 17.9133 308.709 16.9067 308.709 15.72C308.709 14.5467 308.903 13.54 309.289 12.7C309.689 11.86 310.243 11.2133 310.949 10.76C311.669 10.3067 312.503 10.08 313.449 10.08ZM313.429 11.52C312.589 11.52 311.923 11.7933 311.429 12.34C310.949 12.8733 310.663 13.62 310.569 14.58H316.029C316.029 13.9667 315.936 13.4333 315.749 12.98C315.563 12.5267 315.276 12.1733 314.889 11.92C314.516 11.6533 314.029 11.52 313.429 11.52ZM324.398 21.2C323.065 21.2 321.998 20.74 321.198 19.82C320.398 18.8867 319.998 17.5 319.998 15.66C319.998 13.82 320.398 12.4333 321.198 11.5C322.012 10.5533 323.085 10.08 324.418 10.08C324.978 10.08 325.465 10.1533 325.878 10.3C326.292 10.4333 326.652 10.62 326.958 10.86C327.265 11.1 327.525 11.3667 327.738 11.66H327.858C327.845 11.4867 327.818 11.2333 327.778 10.9C327.752 10.5533 327.738 10.28 327.738 10.08V5.8H329.498V21H328.078L327.818 19.56H327.738C327.525 19.8667 327.265 20.1467 326.958 20.4C326.652 20.64 326.285 20.8333 325.858 20.98C325.445 21.1267 324.958 21.2 324.398 21.2ZM324.678 19.74C325.812 19.74 326.605 19.4333 327.058 18.82C327.525 18.1933 327.758 17.2533 327.758 16V15.68C327.758 14.3467 327.538 13.3267 327.098 12.62C326.658 11.9 325.845 11.54 324.658 11.54C323.712 11.54 322.998 11.92 322.518 12.68C322.052 13.4267 321.818 14.4333 321.818 15.7C321.818 16.98 322.052 17.9733 322.518 18.68C322.998 19.3867 323.718 19.74 324.678 19.74Z" fill="#318000"/>
</svg>
